<?xml version="1.0" standalone="no"?>
<!DOCTYPE svg PUBLIC "-//W3C//DTD SVG 20010904//EN"
 "http://www.w3.org/TR/2001/REC-SVG-20010904/DTD/svg10.dtd">
<svg version="1.0" xmlns="http://www.w3.org/2000/svg"
 width="512.000000pt" height="512.000000pt" viewBox="0 0 512.000000 512.000000"
 preserveAspectRatio="xMidYMid meet">
<metadata>
Created by potrace 1.14, written by Peter Selinger 2001-2017
</metadata>
<g transform="translate(0.000000,512.000000) scale(0.100000,-0.100000)"
fill="#000000" stroke="none">
<path d="M2075 3901 c-16 -10 -203 -193 -415 -405 l-384 -385 -196 193 c-107
106 -209 200 -227 209 -86 45 -191 -6 -209 -100 -14 -75 -1 -92 288 -380 233
-231 278 -272 310 -278 82 -15 74 -22 547 449 244 242 456 459 472 480 55 74
30 177 -51 218 -45 23 -98 23 -135 -1z"/>
<path d="M2820 3349 c-131 -52 -124 -243 11 -279 25 -7 300 -10 796 -8 l758 3
34 24 c89 64 76 207 -22 252 -40 18 -76 19 -797 18 -476 0 -764 -4 -780 -10z"/>
<path d="M2085 2346 c-16 -8 -205 -190 -419 -404 l-389 -390 -204 196 c-112
108 -216 202 -231 209 -84 37 -181 -14 -198 -104 -14 -75 -1 -92 288 -380 233
-231 278 -272 310 -278 82 -15 74 -22 547 449 244 242 456 459 472 480 49 66
36 158 -30 205 -38 28 -107 35 -146 17z"/>
<path d="M2826 1790 c-125 -38 -136 -226 -16 -274 36 -14 127 -16 798 -16 718
0 759 1 792 19 55 29 75 64 75 130 -1 70 -27 112 -85 135 -36 14 -122 16 -788
15 -411 0 -760 -5 -776 -9z"/>
</g>
</svg>
